<svg width="18" height="17" viewBox="0 0 18 17" fill="none" xmlns="http://www.w3.org/2000/svg">
<mask id="path-1-outside-1_1_419" maskUnits="userSpaceOnUse" x="0.200928" y="0.214111" width="18" height="16" fill="black">
<rect fill="white" x="0.200928" y="0.214111" width="18" height="16"/>
<path d="M13.9913 2.21411H4.03498C3.54899 2.21549 3.08329 2.40917 2.73964 2.75282C2.39598 3.09647 2.20231 3.56217 2.20093 4.04817V10.3364C2.20231 10.8224 2.39598 11.288 2.73964 11.6317C3.08329 11.9754 3.54899 12.169 4.03498 12.1704H5.34502V14.7905L8.41444 12.2313C8.46158 12.192 8.52104 12.1704 8.58246 12.1704H13.9913C14.4773 12.169 14.943 11.9754 15.2866 11.6317C15.6303 11.288 15.824 10.8224 15.8253 10.3364V4.04817C15.824 3.56217 15.6303 3.09647 15.2866 2.75282C14.943 2.40917 14.4773 2.21549 13.9913 2.21411Z"/>
<path d="M6.13938 5.03114C6.40612 4.76441 6.75708 4.63105 7.19227 4.63105C7.62747 4.63105 7.97843 4.77143 8.24516 5.0522C8.5119 5.31893 8.64526 5.74711 8.64526 6.33673C8.64526 6.91231 8.39959 7.5651 7.90824 8.2951C7.43093 9.03914 6.92554 9.52347 6.39208 9.74809C6.30785 9.7902 6.18852 9.74809 6.0341 9.62174C5.89371 9.4954 5.82352 9.39011 5.82352 9.30587C6.38506 8.9128 6.77112 8.31616 6.9817 7.51596C6.61669 7.47385 6.32189 7.31942 6.09727 7.05269C5.87265 6.77192 5.76034 6.435 5.76034 6.04192C5.76034 5.6348 5.88669 5.29788 6.13938 5.03114Z"/>
<path d="M10.1708 5.03114C10.4375 4.76441 10.7885 4.63105 11.2237 4.63105C11.6589 4.63105 12.0098 4.77143 12.2766 5.0522C12.5433 5.31893 12.6767 5.74711 12.6767 6.33673C12.6767 6.91231 12.431 7.5651 11.9397 8.2951C11.4623 9.03914 10.957 9.52347 10.4235 9.74809C10.3393 9.7902 10.2199 9.74809 10.0655 9.62174C9.92513 9.4954 9.85493 9.39011 9.85493 9.30587C10.4165 8.9128 10.8025 8.31616 11.0131 7.51596C10.6481 7.47385 10.3533 7.31942 10.1287 7.05269C9.90407 6.77192 9.79176 6.435 9.79176 6.04192C9.79176 5.6348 9.91811 5.29788 10.1708 5.03114Z"/>
</mask>
<path d="M6.13938 5.03114C6.40612 4.76441 6.75708 4.63105 7.19227 4.63105C7.62747 4.63105 7.97843 4.77143 8.24516 5.0522C8.5119 5.31893 8.64526 5.74711 8.64526 6.33673C8.64526 6.91231 8.39959 7.5651 7.90824 8.2951C7.43093 9.03914 6.92554 9.52347 6.39208 9.74809C6.30785 9.7902 6.18852 9.74809 6.0341 9.62174C5.89371 9.4954 5.82352 9.39011 5.82352 9.30587C6.38506 8.9128 6.77112 8.31616 6.9817 7.51596C6.61669 7.47385 6.32189 7.31942 6.09727 7.05269C5.87265 6.77192 5.76034 6.435 5.76034 6.04192C5.76034 5.6348 5.88669 5.29788 6.13938 5.03114Z" fill="#007AFE"/>
<path d="M10.1708 5.03114C10.4375 4.76441 10.7885 4.63105 11.2237 4.63105C11.6589 4.63105 12.0098 4.77143 12.2766 5.0522C12.5433 5.31893 12.6767 5.74711 12.6767 6.33673C12.6767 6.91231 12.431 7.5651 11.9397 8.2951C11.4623 9.03914 10.957 9.52347 10.4235 9.74809C10.3393 9.7902 10.2199 9.74809 10.0655 9.62174C9.92513 9.4954 9.85493 9.39011 9.85493 9.30587C10.4165 8.9128 10.8025 8.31616 11.0131 7.51596C10.6481 7.47385 10.3533 7.31942 10.1287 7.05269C9.90407 6.77192 9.79176 6.435 9.79176 6.04192C9.79176 5.6348 9.91811 5.29788 10.1708 5.03114Z" fill="#007AFE"/>
<path d="M13.9913 2.21411L13.9952 0.834111H13.9913V2.21411ZM4.03498 2.21411V0.834106L4.03106 0.834117L4.03498 2.21411ZM2.20093 4.04817L0.820928 4.04424V4.04817H2.20093ZM2.20093 10.3364H0.820922L0.820933 10.3403L2.20093 10.3364ZM4.03498 12.1704L4.03106 13.5504H4.03498V12.1704ZM5.34502 12.1704H6.72502C6.72502 11.4083 6.10717 10.7904 5.34502 10.7904V12.1704ZM5.34502 14.7905H3.96502C3.96502 15.326 4.27485 15.8132 4.75985 16.0403C5.24484 16.2674 5.81743 16.1934 6.22874 15.8504L5.34502 14.7905ZM8.41444 12.2313L9.29817 13.2913L9.29909 13.2905L8.41444 12.2313ZM8.58246 12.1704L8.58218 13.5504H8.58246V12.1704ZM13.9913 12.1704V13.5504L13.9952 13.5504L13.9913 12.1704ZM15.8253 10.3364L17.2053 10.3403V10.3364H15.8253ZM15.8253 4.04817H17.2053L17.2053 4.04424L15.8253 4.04817ZM6.13938 5.03114L5.16358 4.05534L5.15039 4.06852L5.13757 4.08206L6.13938 5.03114ZM8.24516 5.0522L7.24466 6.00267L7.25685 6.0155L7.26936 6.02801L8.24516 5.0522ZM7.90824 8.2951L6.76341 7.52454L6.75491 7.53716L6.7467 7.54996L7.90824 8.2951ZM6.39208 9.74809L5.85656 8.47623L5.81513 8.49368L5.77492 8.51378L6.39208 9.74809ZM6.0341 9.62174L5.11092 10.6475L5.13508 10.6692L5.16023 10.6898L6.0341 9.62174ZM5.82352 9.30587L5.03214 8.17533L4.44352 8.58737V9.30587H5.82352ZM6.9817 7.51596L8.31626 7.86716L8.72142 6.32754L7.13988 6.14506L6.9817 7.51596ZM6.09727 7.05269L5.01967 7.91477L5.03051 7.92832L5.04169 7.9416L6.09727 7.05269ZM10.1708 5.03114L9.19499 4.05534L9.18181 4.06852L9.16898 4.08206L10.1708 5.03114ZM12.2766 5.0522L11.2761 6.00267L11.2883 6.0155L11.3008 6.02801L12.2766 5.0522ZM11.9397 8.2951L10.7948 7.52454L10.7863 7.53716L10.7781 7.54996L11.9397 8.2951ZM10.4235 9.74809L9.88797 8.47623L9.84654 8.49368L9.80634 8.51378L10.4235 9.74809ZM10.0655 9.62174L9.14234 10.6475L9.16649 10.6692L9.19164 10.6898L10.0655 9.62174ZM9.85493 9.30587L9.06355 8.17533L8.47493 8.58737V9.30587H9.85493ZM11.0131 7.51596L12.3477 7.86716L12.7528 6.32754L11.1713 6.14506L11.0131 7.51596ZM10.1287 7.05269L9.05108 7.91477L9.06193 7.92832L9.07311 7.9416L10.1287 7.05269ZM13.9913 0.834111H4.03498V3.59411H13.9913V0.834111ZM4.03106 0.834117C3.18042 0.836537 2.36532 1.17552 1.76383 1.77701L3.71544 3.72863C3.80126 3.64281 3.91755 3.59445 4.03891 3.59411L4.03106 0.834117ZM1.76383 1.77701C1.16234 2.37851 0.823353 3.19361 0.820933 4.04424L3.58092 4.05209C3.58127 3.93073 3.62963 3.81444 3.71544 3.72863L1.76383 1.77701ZM0.820928 4.04817V10.3364H3.58093V4.04817H0.820928ZM0.820933 10.3403C0.823353 11.1909 1.16234 12.006 1.76383 12.6075L3.71544 10.6559C3.62963 10.5701 3.58127 10.4538 3.58092 10.3324L0.820933 10.3403ZM1.76383 12.6075C2.36532 13.209 3.18042 13.548 4.03106 13.5504L4.03891 10.7904C3.91755 10.7901 3.80126 10.7417 3.71544 10.6559L1.76383 12.6075ZM4.03498 13.5504H5.34502V10.7904H4.03498V13.5504ZM3.96502 12.1704V14.7905H6.72502V12.1704H3.96502ZM6.22874 15.8504L9.29816 13.2913L7.53072 11.1714L4.4613 13.7306L6.22874 15.8504ZM9.29909 13.2905C9.09796 13.4585 8.84422 13.5505 8.58218 13.5504L8.58273 10.7904C8.19787 10.7903 7.8252 10.9254 7.5298 11.1722L9.29909 13.2905ZM8.58246 13.5504H13.9913V10.7904H8.58246V13.5504ZM13.9952 13.5504C14.8458 13.548 15.6609 13.209 16.2624 12.6075L14.3108 10.6559C14.225 10.7417 14.1087 10.7901 13.9874 10.7904L13.9952 13.5504ZM16.2624 12.6075C16.8639 12.006 17.2029 11.1909 17.2053 10.3403L14.4453 10.3324C14.445 10.4538 14.3966 10.5701 14.3108 10.6559L16.2624 12.6075ZM17.2053 10.3364V4.04817H14.4453V10.3364H17.2053ZM17.2053 4.04424C17.2029 3.19361 16.8639 2.3785 16.2624 1.77701L14.3108 3.72863C14.3966 3.81444 14.445 3.93073 14.4453 4.05209L17.2053 4.04424ZM16.2624 1.77701C15.6609 1.17552 14.8458 0.836537 13.9952 0.834117L13.9874 3.59411C14.1087 3.59445 14.225 3.64281 14.3108 3.72863L16.2624 1.77701ZM7.11519 6.00695C7.11531 6.00684 7.11445 6.0077 7.11259 6.00921C7.11073 6.01072 7.10831 6.01251 7.10546 6.01435C7.09924 6.01838 7.09435 6.0205 7.09286 6.02107C7.08897 6.02255 7.11594 6.01104 7.19227 6.01104V3.25104C6.45203 3.25104 5.72924 3.48968 5.16358 4.05534L7.11519 6.00695ZM7.19227 6.01104C7.22692 6.01104 7.24887 6.01384 7.26028 6.01588C7.27136 6.01785 7.27349 6.01928 7.26937 6.01763C7.265 6.01588 7.25854 6.01265 7.25192 6.00814C7.24538 6.00368 7.24298 6.0009 7.24466 6.00267L9.24566 4.10173C8.68491 3.51146 7.95421 3.25104 7.19227 3.25104V6.01104ZM7.26936 6.02801C7.21743 5.97608 7.21494 5.9429 7.22767 5.98377C7.2423 6.03074 7.26526 6.13997 7.26526 6.33673H10.0253C10.0253 5.58138 9.86014 4.71556 9.22097 4.07639L7.26936 6.02801ZM7.26526 6.33673C7.26526 6.52805 7.17703 6.91002 6.76341 7.52454L9.05307 9.06566C9.62214 8.22018 10.0253 7.29656 10.0253 6.33673H7.26526ZM6.7467 7.54996C6.34581 8.17488 6.03014 8.40315 5.85656 8.47623L6.9276 11.0199C7.82095 10.6438 8.51605 9.9034 9.06978 9.04024L6.7467 7.54996ZM5.77492 8.51378C6.17063 8.31593 6.53102 8.38758 6.6987 8.44676C6.85091 8.50048 6.92443 8.56716 6.90796 8.55368L5.16023 10.6898C5.29818 10.8027 5.50858 10.9536 5.78012 11.0494C6.06713 11.1507 6.52929 11.2224 7.00923 10.9824L5.77492 8.51378ZM6.95727 8.596C6.93506 8.57601 6.97261 8.60486 7.02439 8.68253C7.06924 8.7498 7.20352 8.97061 7.20352 9.30587H4.44352C4.44352 9.72537 4.61289 10.0409 4.72793 10.2135C4.84991 10.3965 4.99274 10.5411 5.11092 10.6475L6.95727 8.596ZM6.6149 10.4364C7.49664 9.81919 8.04051 8.91501 8.31626 7.86716L5.64713 7.16476C5.50173 7.71731 5.27348 8.0064 5.03214 8.17533L6.6149 10.4364ZM7.13988 6.14506C7.12316 6.14313 7.11554 6.14089 7.11506 6.14075C7.11482 6.14067 7.11951 6.1421 7.12717 6.14611C7.13491 6.15017 7.14219 6.15504 7.14802 6.15976C7.15373 6.16439 7.15518 6.16656 7.15285 6.16378L5.04169 7.9416C5.50609 8.49307 6.12953 8.80679 6.82351 8.88687L7.13988 6.14506ZM7.17487 6.19061C7.16461 6.17779 7.14034 6.15277 7.14034 6.04192H4.38034C4.38034 6.71722 4.5807 7.36605 5.01967 7.91477L7.17487 6.19061ZM7.14034 6.04192C7.14034 5.98229 7.14928 5.96299 7.14724 5.96844C7.1465 5.9704 7.14479 5.97416 7.14226 5.97819C7.13977 5.98216 7.13868 5.98289 7.1412 5.98023L5.13757 4.08206C4.61494 4.63372 4.38034 5.32318 4.38034 6.04192H7.14034ZM11.1466 6.00695C11.1467 6.00684 11.1459 6.0077 11.144 6.00921C11.1421 6.01072 11.1397 6.01251 11.1369 6.01435C11.1307 6.01838 11.1258 6.0205 11.1243 6.02107C11.1204 6.02255 11.1474 6.01104 11.2237 6.01104V3.25104C10.4834 3.25104 9.76065 3.48968 9.19499 4.05534L11.1466 6.00695ZM11.2237 6.01104C11.2583 6.01104 11.2803 6.01384 11.2917 6.01588C11.3028 6.01785 11.3049 6.01928 11.3008 6.01763C11.2964 6.01588 11.29 6.01265 11.2833 6.00814C11.2768 6.00368 11.2744 6.0009 11.2761 6.00267L13.2771 4.10173C12.7163 3.51146 11.9856 3.25104 11.2237 3.25104V6.01104ZM11.3008 6.02801C11.2488 5.97608 11.2464 5.9429 11.2591 5.98377C11.2737 6.03074 11.2967 6.13997 11.2967 6.33673H14.0567C14.0567 5.58138 13.8916 4.71556 13.2524 4.07639L11.3008 6.02801ZM11.2967 6.33673C11.2967 6.52805 11.2084 6.91002 10.7948 7.52454L13.0845 9.06566C13.6536 8.22018 14.0567 7.29656 14.0567 6.33673H11.2967ZM10.7781 7.54996C10.3772 8.17488 10.0616 8.40315 9.88797 8.47623L10.959 11.0199C11.8524 10.6438 12.5475 9.9034 13.1012 9.04024L10.7781 7.54996ZM9.80634 8.51378C10.202 8.31593 10.5624 8.38758 10.7301 8.44676C10.8823 8.50048 10.9558 8.56716 10.9394 8.55368L9.19164 10.6898C9.3296 10.8027 9.54 10.9536 9.81154 11.0494C10.0985 11.1507 10.5607 11.2224 11.0406 10.9824L9.80634 8.51378ZM10.9887 8.596C10.9665 8.57601 11.004 8.60486 11.0558 8.68253C11.1007 8.7498 11.2349 8.97061 11.2349 9.30587H8.47493C8.47493 9.72537 8.64431 10.0409 8.75935 10.2135C8.88132 10.3965 9.02416 10.5411 9.14234 10.6475L10.9887 8.596ZM10.6463 10.4364C11.5281 9.81919 12.0719 8.91501 12.3477 7.86716L9.67855 7.16476C9.53314 7.71731 9.30489 8.0064 9.06355 8.17533L10.6463 10.4364ZM11.1713 6.14506C11.1546 6.14313 11.147 6.14089 11.1465 6.14075C11.1462 6.14067 11.1509 6.1421 11.1586 6.14611C11.1663 6.15017 11.1736 6.15504 11.1794 6.15976C11.1851 6.16439 11.1866 6.16656 11.1843 6.16378L9.07311 7.9416C9.5375 8.49307 10.1609 8.80679 10.8549 8.88687L11.1713 6.14506ZM11.2063 6.19061C11.196 6.17778 11.1718 6.15277 11.1718 6.04192H8.41176C8.41176 6.71722 8.61211 7.36606 9.05108 7.91477L11.2063 6.19061ZM11.1718 6.04192C11.1718 5.98229 11.1807 5.96299 11.1787 5.96844C11.1779 5.9704 11.1762 5.97416 11.1737 5.97819C11.1712 5.98216 11.1701 5.98289 11.1726 5.98023L9.16898 4.08206C8.64635 4.63372 8.41176 5.32318 8.41176 6.04192H11.1718Z" fill="#007AFE" mask="url(#path-1-outside-1_1_419)"/>
</svg>
