<svg width="18" height="17" viewBox="0 0 18 17" fill="none" xmlns="http://www.w3.org/2000/svg">
<path d="M16.6314 8.12392C17.456 7.57586 17.068 6.29108 16.0778 6.29108H12.1313C11.7016 6.29108 11.3198 6.01648 11.1832 5.609L9.94834 1.9263C9.64338 1.01686 8.35705 1.01686 8.0521 1.9263L6.81722 5.609C6.68059 6.01648 6.29888 6.29108 5.86911 6.29108H1.92259C0.932443 6.29108 0.544442 7.57586 1.36907 8.12392L4.45848 10.1772C4.83862 10.4298 4.99945 10.9078 4.84935 11.3389L3.62051 14.8678C3.30113 15.785 4.34486 16.5732 5.13964 16.015L8.42547 13.7072C8.77035 13.465 9.23008 13.465 9.57496 13.7072L12.8608 16.015C13.6556 16.5732 14.6993 15.785 14.3799 14.8678L13.1511 11.3389C13.001 10.9078 13.1618 10.4298 13.542 10.1772L16.6314 8.12392Z" stroke="black" stroke-width="1.38" stroke-linejoin="round"/>
</svg>
