<svg width="18" height="18" viewBox="0 0 18 18" fill="none" xmlns="http://www.w3.org/2000/svg">
<path d="M9.0007 10.6883C9.93268 10.6883 10.6882 9.9328 10.6882 9.00082C10.6882 8.06884 9.93268 7.31332 9.0007 7.31332C8.06872 7.31332 7.3132 8.06884 7.3132 9.00082C7.3132 9.9328 8.06872 10.6883 9.0007 10.6883Z" fill="#007AFE"/>
<path d="M14.6249 10.6883C15.5569 10.6883 16.3124 9.9328 16.3124 9.00082C16.3124 8.06884 15.5569 7.31332 14.6249 7.31332C13.6929 7.31332 12.9374 8.06884 12.9374 9.00082C12.9374 9.9328 13.6929 10.6883 14.6249 10.6883Z" fill="#007AFE"/>
<path d="M3.37466 10.6883C4.30665 10.6883 5.06216 9.9328 5.06216 9.00082C5.06216 8.06884 4.30665 7.31332 3.37466 7.31332C2.44268 7.31332 1.68716 8.06884 1.68716 9.00082C1.68716 9.9328 2.44268 10.6883 3.37466 10.6883Z" fill="#007AFE"/>
</svg>
