<svg width="22" height="22" viewBox="0 0 22 22" fill="none" xmlns="http://www.w3.org/2000/svg">
<path d="M1.375 12.6725V16.8437C1.375 17.2996 1.55608 17.7368 1.87841 18.0591C2.20074 18.3814 2.63791 18.5625 3.09375 18.5625H18.9063C19.3621 18.5625 19.7993 18.3814 20.1216 18.0591C20.4439 17.7368 20.625 17.2996 20.625 16.8437V6.53125C20.625 6.07541 20.4439 5.63824 20.1216 5.31591C19.7993 4.99358 19.3621 4.8125 18.9063 4.8125H9.69201M20.625 8.25H11H10.5283" stroke="black" stroke-width="1.375" stroke-linecap="round" stroke-linejoin="round"/>
<path fill-rule="evenodd" clip-rule="evenodd" d="M4.58936 4.07825C6.69526 4.07825 8.40382 5.78681 8.40382 7.89271C8.40382 9.99861 6.69526 11.7072 4.58936 11.7072C2.48346 11.7072 0.774902 9.99861 0.774902 7.89271C0.774902 5.78681 2.48346 4.07825 4.58936 4.07825ZM5.14423 5.66193C5.14423 5.32336 4.86976 5.0489 4.53119 5.0489C4.19262 5.0489 3.91815 5.32336 3.91815 5.66193V7.30932H2.27077C1.9322 7.30932 1.65773 7.58378 1.65773 7.92236C1.65773 8.26093 1.9322 8.53539 2.27077 8.53539H3.91815V10.1828C3.91815 10.5213 4.19262 10.7958 4.53119 10.7958C4.86976 10.7958 5.14423 10.5213 5.14423 10.1828V8.53539H6.79161C7.13018 8.53539 7.40465 8.26093 7.40465 7.92236C7.40465 7.58378 7.13018 7.30932 6.79161 7.30932H5.14423V5.66193Z" fill="black"/>
</svg>
