<svg width="11" height="10" viewBox="0 0 11 10" fill="none" xmlns="http://www.w3.org/2000/svg">
<path d="M9.98361 4.61833C10.1962 4.47703 10.0962 4.1458 9.84091 4.1458H6.89148C6.78067 4.1458 6.68226 4.075 6.64704 3.96995L5.74459 1.27862C5.66597 1.04415 5.33433 1.04415 5.25571 1.27861L4.35326 3.96995C4.31804 4.075 4.21963 4.1458 4.10883 4.1458H1.15939C0.904118 4.1458 0.804087 4.47703 1.01669 4.61833L3.38571 6.19282C3.48372 6.25795 3.52518 6.38118 3.48648 6.49231L2.56312 9.14401C2.48078 9.38048 2.74987 9.58368 2.95477 9.43977L5.35197 7.75612C5.44089 7.69367 5.55941 7.69367 5.64833 7.75612L8.04553 9.43977C8.25043 9.58368 8.51952 9.38048 8.43718 9.14401L7.51382 6.49231C7.47512 6.38118 7.51658 6.25795 7.61459 6.19282L9.98361 4.61833Z" fill="#B4B5B9" stroke="#B4B5B9" stroke-width="0.69" stroke-linejoin="round"/>
</svg>
